<svg width="24" height="24" viewBox="0 0 24 24" fill="none" xmlns="http://www.w3.org/2000/svg">
<g clip-path="url(#clip0_259_77)">
<path fill-rule="evenodd" clip-rule="evenodd" d="M21.3287 10.2199V20.6548C21.3287 21.2514 20.8415 21.7417 20.2487 21.7417H15.8423H15.3671C14.7743 21.7417 14.2871 21.2538 14.2871 20.6548V20.2441V19.8335V15.6088C14.2871 14.3407 13.2575 13.3069 11.9999 13.3069C10.7423 13.3069 9.71274 14.3407 9.71274 15.6088V19.8335V20.2441V20.6548C9.71274 21.2538 9.22554 21.7417 8.63274 21.7417H8.15754H3.75114C3.15834 21.7417 2.67114 21.2538 2.67114 20.6548V10.2199C2.67114 9.88412 2.80554 9.59667 3.06234 9.38411L11.3111 2.49998C11.7143 2.16423 12.2855 2.16423 12.6887 2.49998L20.9375 9.38411C21.1943 9.59667 21.3287 9.88412 21.3287 10.2199Z" fill="#3066D8"/>
</g>
<defs>
<clipPath id="clip0_259_77">
<rect width="24" height="24" fill="white"/>
</clipPath>
</defs>
</svg>
