<svg width="17" height="18" viewBox="0 0 17 18" fill="none" xmlns="http://www.w3.org/2000/svg">
<path d="M12.5086 3.59999C11.4365 2.67499 10.0118 2.16666 8.50004 2.16666C6.98828 2.16666 5.56368 2.67499 4.49144 3.59999C3.41928 4.52082 2.83008 5.74999 2.83008 7.05839C2.83008 8.36679 3.41928 9.59172 4.49144 10.5125L8.1571 13.7084C8.24887 13.7876 8.36961 13.8334 8.50001 13.8334C8.63042 13.8334 8.75115 13.7876 8.84292 13.7084L12.5086 10.5125C13.5807 9.5917 14.1699 8.36252 14.1699 7.05839C14.1699 5.75426 13.5808 4.52092 12.5086 3.59999ZM8.50004 8.50826C7.43272 8.50826 6.56822 7.76242 6.56822 6.84159C6.56822 5.92076 7.43272 5.17492 8.50004 5.17492C9.56736 5.17492 10.4319 5.92076 10.4319 6.84159C10.4319 7.76242 9.56736 8.50826 8.50004 8.50826Z" fill="#3066D8"/>
</svg>
