<svg width="25" height="25" viewBox="0 0 25 25" fill="none" xmlns="http://www.w3.org/2000/svg">
<path d="M20.5496 15.8485L19.5366 14.3591L19.5357 14.3598C19.4753 14.2723 19.4425 14.1746 19.4416 14.0741V9.35183C19.4017 8.14524 18.8672 6.98424 17.9226 6.05461C16.9789 5.12435 15.6801 4.47909 14.2331 4.22085V4.03566C14.2331 3.25368 13.4554 2.61929 12.4957 2.61929C11.536 2.61929 10.7574 3.2537 10.7574 4.03566V4.22085C9.33607 4.43787 8.04695 5.04116 7.1015 5.93309C6.15511 6.82429 5.60825 7.95068 5.54966 9.12827V14.074C5.54788 14.1746 5.51592 14.2722 5.45467 14.3598L4.45057 15.8485C4.32717 16.0561 4.34937 16.302 4.51006 16.4923C4.67074 16.6826 4.94508 16.7874 5.22737 16.7672H19.7728C20.0551 16.7874 20.3295 16.6825 20.4901 16.4923C20.6508 16.302 20.673 16.0561 20.5496 15.8485Z" fill="#3066D8"/>
<path d="M12.5001 19.5985C13.1819 19.6412 13.8646 19.532 14.4772 19.2831C15.0889 19.035 15.6065 18.656 15.9758 18.1865H9.02441C9.39373 18.656 9.9113 19.035 10.523 19.2831C11.1356 19.532 11.8183 19.6412 12.5001 19.5985Z" fill="#3066D8"/>
</svg>
