<svg width="24" height="24" viewBox="0 0 24 24" fill="none" xmlns="http://www.w3.org/2000/svg">
<g clip-path="url(#clip0_259_71)">
<path d="M12 5.11877C9.525 5.11877 7.5 7.09315 7.5 9.50627C7.5 11.9194 9.525 13.8938 12 13.8938C14.475 13.8938 16.5 11.9194 16.5 9.50627C16.5 7.09315 14.475 5.11877 12 5.11877ZM12 12.4313C10.35 12.4313 9 11.115 9 9.50627C9 7.89752 10.35 6.58127 12 6.58127C13.65 6.58127 15 7.89752 15 9.50627C15 11.115 13.65 12.4313 12 12.4313Z" fill="#3066D8"/>
<path d="M12 1.46252C6.1875 1.46252 1.5 6.03284 1.5 11.7C1.5 14.4788 2.6625 17.0381 4.5 18.8663C4.95 19.305 5.4375 19.7072 6 20.0728C7.6875 21.2428 9.75 21.901 12 21.901C14.25 21.901 16.3125 21.2063 18 20.0728C18.525 19.7072 19.0125 19.305 19.5 18.8663C21.375 17.0016 22.5 14.4788 22.5 11.7C22.5 6.03284 17.8125 1.46252 12 1.46252ZM12 20.475C9.75 20.475 7.725 19.6706 6.15 18.3544C6.5625 17.0381 7.8 16.0875 9.2625 16.0875H14.775C16.2375 16.0875 17.475 17.0381 17.8875 18.3544C16.275 19.6706 14.25 20.475 12 20.475ZM19.0125 17.1844C18.225 15.6488 16.6125 14.625 14.775 14.625H9.2625C7.3875 14.625 5.775 15.6853 5.025 17.1844C3.75 15.6853 3 13.7841 3 11.7C3 6.87377 7.05 2.92502 12 2.92502C16.95 2.92502 21 6.87377 21 11.7C21 13.7841 20.25 15.6853 19.0125 17.1844Z" fill="#3066D8"/>
</g>
<defs>
<clipPath id="clip0_259_71">
<rect width="24" height="24" fill="white"/>
</clipPath>
</defs>
</svg>
