<svg width="30" height="32" viewBox="0 0 30 32" fill="none" xmlns="http://www.w3.org/2000/svg">
<g clip-path="url(#clip0_256_15)">
<path d="M23.2307 0.320007H8.23071C6.77202 0.320007 5.37308 0.876291 4.34163 1.86648C3.31018 2.85668 2.73071 4.19966 2.73071 5.60001V9.44001H5.73071V5.60001C5.73071 4.96349 5.99411 4.35304 6.46295 3.90295C6.93179 3.45286 7.56767 3.20001 8.23071 3.20001H23.2307C23.8938 3.20001 24.5296 3.45286 24.9985 3.90295C25.4673 4.35304 25.7307 4.96349 25.7307 5.60001V20C25.7307 20.6365 25.4673 21.247 24.9985 21.6971C24.5296 22.1472 23.8938 22.4 23.2307 22.4H21.2307V25.28H23.2307C24.6894 25.28 26.0884 24.7237 27.1198 23.7335C28.1513 22.7433 28.7307 21.4004 28.7307 20V5.60001C28.7307 4.19966 28.1513 2.85668 27.1198 1.86648C26.0884 0.876291 24.6894 0.320007 23.2307 0.320007Z" fill="black"/>
<path d="M7.23079 26.24C8.70006 26.241 10.1369 25.8252 11.3608 25.0448L16.9208 30.3776L19.0408 28.3424L13.4858 23.0048C14.4056 21.6663 14.8336 20.0713 14.702 18.4727C14.5704 16.8741 13.8867 15.3635 12.7593 14.1803C11.6318 12.9971 10.1252 12.2091 8.47835 11.9412C6.83146 11.6733 5.13854 11.9408 3.66802 12.7014C2.1975 13.462 1.03355 14.6721 0.360711 16.1398C-0.312126 17.6075 -0.455331 19.2488 -0.0462003 20.8035C0.362931 22.3582 1.30098 23.7373 2.61922 24.7222C3.93745 25.707 5.56042 26.2412 7.23079 26.24ZM7.23079 14.72C8.1208 14.72 8.99083 14.9734 9.73085 15.4481C10.4709 15.9227 11.0476 16.5974 11.3882 17.3868C11.7288 18.1762 11.818 19.0448 11.6443 19.8828C11.4707 20.7208 11.0421 21.4905 10.4128 22.0947C9.78343 22.6989 8.98161 23.1103 8.10869 23.277C7.23578 23.4437 6.33098 23.3581 5.50871 23.0312C4.68644 22.7042 3.98364 22.1505 3.48917 21.4401C2.99471 20.7296 2.73079 19.8944 2.73079 19.04C2.73079 17.8943 3.20489 16.7955 4.04881 15.9853C4.89272 15.1751 6.03731 14.72 7.23079 14.72Z" fill="#3066D8"/>
</g>
<defs>
<clipPath id="clip0_256_15">
<rect width="30" height="32" fill="white"/>
</clipPath>
</defs>
</svg>
